<svg xmlns="http://www.w3.org/2000/svg" xmlns:xlink="http://www.w3.org/1999/xlink" width="40" zoomAndPan="magnify" viewBox="0 0 30 30.000001" height="40" preserveAspectRatio="xMidYMid meet" version="1.0"><defs><clipPath id="919d073a9c"><path d="M 7 0 L 29.226562 0 L 29.226562 29 L 7 29 Z M 7 0 " clip-rule="nonzero"/></clipPath><clipPath id="8c50258ea4"><path d="M 8 10 L 29.226562 10 L 29.226562 28 L 8 28 Z M 8 10 " clip-rule="nonzero"/></clipPath><clipPath id="91c2c6aa96"><path d="M 1.644531 0 L 29.226562 0 L 29.226562 29.03125 L 1.644531 29.03125 Z M 1.644531 0 " clip-rule="nonzero"/></clipPath></defs><g clip-path="url(#919d073a9c)"><path fill="#f3a286" d="M 29.167969 26.332031 C 29.167969 26.324219 29.164062 26.3125 29.164062 26.304688 C 29.164062 26.292969 29.164062 26.285156 29.160156 26.277344 C 29.15625 26.242188 29.152344 26.210938 29.144531 26.179688 C 29.144531 26.179688 29.144531 26.175781 29.140625 26.171875 C 29.140625 26.160156 29.136719 26.148438 29.132812 26.136719 C 29.078125 25.910156 28.996094 25.734375 28.867188 25.601562 C 28.863281 25.59375 28.855469 25.585938 28.847656 25.578125 C 28.882812 25.550781 28.9375 25.519531 28.972656 25.492188 C 28.984375 25.480469 28.992188 25.460938 28.984375 25.441406 L 26.996094 20.773438 C 26.941406 20.636719 26.933594 20.488281 26.96875 20.351562 C 27.226562 19.367188 27.308594 18.074219 27.210938 17.042969 C 27.203125 17 27.199219 16.953125 27.195312 16.910156 C 27.304688 16.859375 27.414062 16.808594 27.519531 16.757812 C 27.621094 16.707031 27.671875 16.597656 27.648438 16.488281 C 27.078125 13.832031 26.351562 11.90625 25.378906 10.078125 C 24.964844 9.296875 24.363281 8.738281 23.488281 8.570312 L 23.21875 8.441406 C 23.605469 7.96875 23.90625 7.402344 24.089844 6.769531 C 24.777344 6.171875 24.808594 5.589844 24.753906 5.265625 C 24.804688 4.847656 24.761719 4.449219 24.746094 4.046875 C 24.710938 3.058594 24.316406 2.199219 23.578125 1.445312 C 22.65625 0.503906 21.519531 0.179688 20.445312 0.488281 C 20.398438 0.503906 20.347656 0.507812 20.300781 0.5 C 19.199219 0.367188 18.214844 0.683594 17.332031 1.402344 C 16.503906 2.070312 16.011719 2.9375 15.824219 3.96875 C 15.734375 4.542969 15.789062 5.101562 15.964844 5.5625 C 16.140625 6.054688 16.320312 6.398438 16.617188 6.5625 C 16.636719 6.664062 16.660156 6.761719 16.6875 6.859375 C 17.160156 8.722656 18.386719 9.863281 20.023438 9.933594 C 20.074219 9.9375 20.128906 9.9375 20.183594 9.9375 C 20.203125 9.9375 20.226562 9.9375 20.25 9.9375 C 20.234375 9.949219 20.246094 10.015625 20.230469 10.023438 C 19.679688 10.425781 19.183594 10.894531 18.511719 11.554688 C 18.457031 11.605469 18.449219 11.683594 18.488281 11.746094 C 18.601562 11.917969 18.648438 12.023438 18.710938 12.242188 C 18.488281 12.457031 18.273438 12.667969 18.078125 12.871094 C 18.039062 12.914062 18 12.949219 17.957031 12.984375 C 17.5 13.351562 16.9375 13.859375 16.285156 14.496094 C 15.855469 14.875 15.449219 15.289062 15.074219 15.730469 C 14.996094 15.824219 14.941406 15.929688 14.910156 16.050781 L 14.726562 16.78125 C 14.707031 16.863281 14.691406 16.953125 14.6875 17.042969 L 14.644531 17.621094 C 14.636719 17.730469 14.699219 17.832031 14.796875 17.875 C 14.832031 17.890625 14.867188 17.898438 14.898438 17.898438 C 14.910156 17.898438 14.921875 17.894531 14.933594 17.894531 L 15.011719 17.917969 L 8.464844 24.839844 C 8.453125 24.855469 8.253906 24.898438 8.242188 24.914062 C 8.222656 24.945312 8.199219 24.980469 8.183594 25.019531 L 7.378906 26.664062 L 7.386719 26.726562 L 7.375 26.753906 L 7.195312 27.164062 C 7.144531 27.265625 7.160156 27.382812 7.226562 27.472656 C 7.222656 27.472656 7.222656 27.476562 7.21875 27.476562 C 7.234375 27.488281 7.25 27.496094 7.261719 27.507812 C 7.261719 27.507812 7.265625 27.507812 7.265625 27.507812 C 7.292969 27.515625 7.355469 27.519531 7.386719 27.519531 C 7.417969 27.519531 7.460938 27.511719 7.492188 27.5 L 7.808594 27.421875 L 7.90625 27.390625 L 7.960938 27.398438 L 9.738281 26.808594 C 9.777344 26.796875 9.820312 26.777344 9.855469 26.757812 C 9.871094 26.75 9.882812 26.671875 9.898438 26.664062 C 9.902344 26.660156 9.902344 26.660156 9.902344 26.660156 C 9.9375 26.636719 9.96875 26.613281 10 26.585938 C 10.007812 26.578125 10.019531 26.566406 10.03125 26.554688 L 14.511719 21.71875 L 18.21875 18.125 L 18.265625 18.082031 C 18.324219 18.070312 18.386719 18.058594 18.441406 18.039062 C 18.46875 18.027344 18.492188 18.015625 18.519531 18.003906 C 18.539062 17.992188 18.558594 17.984375 18.582031 17.972656 C 18.628906 17.957031 18.695312 17.949219 18.746094 17.933594 L 19.027344 17.890625 L 18.757812 18.109375 L 18.523438 18.292969 L 18.410156 18.386719 C 18.390625 18.398438 18.359375 18.425781 18.347656 18.457031 C 18.328125 18.488281 18.304688 18.53125 18.3125 18.566406 C 18.324219 18.636719 18.351562 18.652344 18.425781 18.664062 C 18.488281 18.671875 18.539062 18.667969 18.597656 18.660156 C 18.707031 18.640625 18.785156 18.609375 18.875 18.542969 C 18.921875 18.507812 18.957031 18.46875 18.996094 18.449219 L 19.136719 18.375 L 19.421875 18.234375 C 19.507812 18.1875 19.625 18.175781 19.730469 18.152344 C 19.835938 18.128906 19.941406 18.109375 20.042969 18.074219 C 20.058594 18.070312 20.09375 18.058594 20.113281 18.050781 L 20.109375 18.0625 L 20.105469 18.105469 C 20.105469 18.105469 20.105469 18.105469 20.105469 18.109375 C 19.851562 19.214844 19.824219 20.375 19.640625 22.03125 C 19.632812 22.128906 19.621094 22.230469 19.617188 22.332031 L 19.0625 26.523438 C 19.0625 26.542969 19.074219 26.558594 19.09375 26.566406 C 19.132812 26.578125 19.273438 26.597656 19.3125 26.609375 C 19.296875 26.617188 19.261719 26.636719 19.21875 26.65625 C 19.140625 26.691406 19.046875 26.734375 19.019531 26.753906 C 19.011719 26.753906 19.007812 26.753906 19.003906 26.757812 C 18.882812 26.828125 18.804688 26.90625 18.695312 26.980469 C 18.648438 27.011719 18.605469 27.042969 18.5625 27.074219 L 18.5 27.121094 C 18.425781 27.175781 18.355469 27.234375 18.289062 27.292969 C 18.160156 27.40625 18.085938 27.460938 18.070312 27.632812 C 18.070312 27.640625 18.066406 27.652344 18.066406 27.660156 C 18.066406 27.671875 18.066406 27.6875 18.066406 27.699219 L 18.066406 27.828125 C 18.066406 27.875 18.078125 27.921875 18.097656 27.960938 C 18.140625 28.042969 18.191406 28.105469 18.292969 28.117188 C 18.859375 28.179688 19.390625 28.175781 19.941406 28.175781 C 20.503906 28.175781 21.011719 28.207031 21.546875 28.136719 C 21.660156 28.121094 21.738281 28.019531 21.769531 27.910156 C 21.78125 27.878906 21.789062 27.851562 21.792969 27.820312 C 21.800781 27.792969 21.808594 27.765625 21.8125 27.742188 C 21.816406 27.722656 21.820312 27.699219 21.824219 27.679688 C 21.828125 27.671875 21.828125 27.664062 21.828125 27.652344 C 21.832031 27.640625 21.832031 27.628906 21.835938 27.613281 C 21.875 27.335938 21.875 27.144531 21.792969 26.875 C 21.789062 26.863281 21.789062 26.851562 21.785156 26.84375 C 21.785156 26.839844 21.78125 26.835938 21.78125 26.835938 C 21.777344 26.824219 21.777344 26.816406 21.773438 26.804688 C 21.769531 26.789062 21.753906 26.753906 21.742188 26.726562 C 21.734375 26.707031 21.730469 26.6875 21.726562 26.679688 C 21.800781 26.664062 21.902344 26.640625 21.972656 26.621094 C 21.988281 26.617188 22 26.605469 22.003906 26.589844 C 22.0625 26.246094 22.035156 25.835938 22.109375 25.46875 C 22.277344 24.625 22.441406 23.800781 22.503906 22.871094 C 22.527344 22.550781 22.59375 22.234375 22.699219 21.933594 L 23.289062 20.539062 L 23.339844 20.421875 C 23.367188 20.472656 23.390625 20.527344 23.414062 20.582031 C 23.449219 20.679688 23.484375 20.773438 23.523438 20.867188 C 23.5625 20.957031 23.601562 21.046875 23.640625 21.136719 C 23.683594 21.230469 23.726562 21.328125 23.773438 21.421875 L 24.660156 23.191406 C 24.710938 23.324219 24.773438 23.449219 24.84375 23.570312 L 26.269531 26.515625 L 26.085938 26.695312 L 25.800781 26.957031 L 25.691406 27.054688 C 25.6875 27.058594 25.683594 27.0625 25.679688 27.066406 L 25.582031 27.15625 L 25.355469 27.359375 C 25.292969 27.410156 25.269531 27.457031 25.246094 27.53125 C 25.246094 27.535156 25.246094 27.539062 25.242188 27.542969 C 25.242188 27.546875 25.242188 27.550781 25.242188 27.554688 C 25.230469 27.582031 25.226562 27.617188 25.226562 27.652344 C 25.222656 27.6875 25.226562 27.71875 25.234375 27.753906 C 25.234375 27.761719 25.234375 27.769531 25.238281 27.777344 C 25.238281 27.78125 25.238281 27.785156 25.242188 27.789062 C 25.273438 27.914062 25.34375 27.960938 25.472656 27.996094 C 25.703125 28.058594 25.910156 28.0625 26.164062 28.0625 C 26.421875 28.0625 26.691406 28.03125 26.972656 27.96875 C 27.164062 27.925781 27.347656 27.863281 27.515625 27.777344 C 28.074219 27.507812 28.566406 27.179688 29.007812 26.761719 C 29.132812 26.644531 29.167969 26.539062 29.167969 26.367188 C 29.167969 26.355469 29.167969 26.34375 29.167969 26.332031 Z M 15.242188 17.601562 C 15.257812 17.5625 15.296875 17.417969 15.308594 17.378906 C 15.328125 17.3125 15.339844 17.226562 15.351562 17.167969 C 15.363281 17.105469 15.386719 17.035156 15.410156 16.976562 C 15.433594 16.921875 15.460938 16.878906 15.492188 16.820312 C 15.535156 16.742188 15.636719 16.585938 15.6875 16.507812 L 15.703125 16.683594 C 15.699219 16.746094 15.695312 16.832031 15.710938 16.902344 L 15.75 17.132812 Z M 16.371094 16.4375 C 16.382812 16.394531 16.40625 16.25 16.425781 16.210938 C 16.464844 16.097656 16.589844 16.015625 16.738281 16.007812 L 16.761719 16.089844 Z M 16.371094 16.4375 " fill-opacity="1" fill-rule="nonzero"/></g><path fill="#ff6721" d="M 10.792969 24.65625 L 9.34375 26.171875 C 9.324219 26.164062 9.300781 26.15625 9.277344 26.148438 C 9.269531 26.144531 9.261719 26.140625 9.253906 26.140625 C 9.234375 26.132812 9.210938 26.125 9.1875 26.121094 C 8.992188 26.074219 8.847656 25.910156 8.820312 25.707031 C 8.8125 25.660156 8.804688 25.613281 8.796875 25.570312 C 8.792969 25.558594 8.792969 25.550781 8.789062 25.539062 C 8.777344 25.496094 8.765625 25.453125 8.753906 25.414062 L 11.828125 22.242188 L 15.347656 18.597656 L 17.601562 16.25 L 18.855469 14.945312 L 21.554688 12.128906 L 21.566406 12.136719 L 22.222656 12.820312 L 22.230469 12.824219 L 21.714844 13.351562 L 19.894531 15.230469 L 19.671875 15.460938 C 19.566406 15.445312 19.464844 15.425781 19.359375 15.414062 C 19.300781 15.402344 19.238281 15.394531 19.175781 15.394531 C 19.117188 15.394531 19.054688 15.402344 19 15.40625 L 18.652344 15.441406 C 18.636719 15.441406 18.609375 15.449219 18.589844 15.460938 C 18.570312 15.472656 18.554688 15.484375 18.542969 15.5 C 18.519531 15.535156 18.503906 15.570312 18.5 15.605469 C 18.496094 15.644531 18.496094 15.679688 18.507812 15.71875 C 18.519531 15.753906 18.554688 15.792969 18.578125 15.808594 C 18.628906 15.847656 18.683594 15.882812 18.75 15.898438 C 18.765625 15.902344 18.78125 15.90625 18.800781 15.90625 C 18.8125 15.910156 18.824219 15.910156 18.839844 15.914062 C 18.867188 15.917969 18.890625 15.925781 18.917969 15.933594 C 18.96875 15.949219 19.015625 15.976562 19.058594 16.007812 C 19.074219 16.019531 19.089844 16.03125 19.105469 16.042969 L 19.089844 16.0625 C 18.863281 16.066406 18.640625 16.074219 18.410156 16.089844 C 18.375 16.09375 18.339844 16.097656 18.300781 16.109375 L 18.207031 16.140625 L 17.832031 16.273438 C 17.816406 16.28125 17.804688 16.285156 17.785156 16.292969 C 17.765625 16.300781 17.746094 16.308594 17.726562 16.324219 C 17.691406 16.351562 17.664062 16.390625 17.652344 16.429688 C 17.625 16.511719 17.644531 16.613281 17.710938 16.675781 C 17.742188 16.707031 17.789062 16.722656 17.824219 16.730469 C 17.859375 16.738281 17.894531 16.746094 17.929688 16.75 C 18 16.757812 18.070312 16.753906 18.140625 16.742188 C 18.210938 16.730469 18.28125 16.707031 18.335938 16.695312 C 18.386719 16.6875 18.433594 16.683594 18.484375 16.683594 L 18.382812 16.789062 L 18.328125 16.800781 C 18.277344 16.808594 18.21875 16.820312 18.167969 16.839844 L 17.871094 16.964844 L 17.800781 16.996094 C 17.785156 17 17.777344 17.003906 17.761719 17.011719 C 17.746094 17.019531 17.730469 17.027344 17.714844 17.039062 C 17.65625 17.082031 17.625 17.160156 17.632812 17.230469 C 17.636719 17.304688 17.679688 17.375 17.742188 17.410156 C 17.75 17.414062 17.757812 17.417969 17.769531 17.421875 L 16.246094 18.996094 L 12.613281 22.769531 Z M 22.296875 13.695312 L 22.230469 13.664062 L 22.195312 13.652344 C 22.1875 13.644531 22.175781 13.640625 22.160156 13.632812 C 22.101562 13.597656 22.066406 13.53125 22.066406 13.460938 C 22.066406 13.445312 22.070312 13.429688 22.074219 13.410156 L 22.085938 13.375 L 22.105469 13.308594 C 22.148438 13.175781 22.191406 13.042969 22.238281 12.910156 L 21.769531 13.402344 L 19.957031 15.296875 L 19.78125 15.480469 C 19.867188 15.492188 19.957031 15.511719 20.046875 15.527344 C 20.074219 15.53125 20.101562 15.539062 20.128906 15.539062 C 20.152344 15.539062 20.179688 15.53125 20.203125 15.519531 C 20.253906 15.492188 20.308594 15.464844 20.363281 15.441406 C 20.359375 15.445312 20.355469 15.449219 20.351562 15.449219 C 20.667969 15.242188 20.992188 15.046875 21.351562 14.855469 C 21.425781 14.816406 21.503906 14.773438 21.582031 14.734375 L 22.390625 13.902344 L 22.445312 13.757812 C 22.4375 13.757812 22.433594 13.753906 22.429688 13.753906 C 22.382812 13.734375 22.339844 13.714844 22.296875 13.695312 Z M 17.9375 17.789062 C 17.953125 17.777344 17.964844 17.765625 17.980469 17.757812 L 18.15625 17.660156 L 18.292969 17.585938 C 18.339844 17.558594 18.398438 17.53125 18.449219 17.519531 L 18.785156 17.417969 L 18.554688 17.414062 L 18.394531 17.410156 C 18.347656 17.40625 18.304688 17.414062 18.253906 17.425781 C 18.144531 17.445312 18.035156 17.457031 17.921875 17.449219 C 17.914062 17.449219 17.902344 17.449219 17.894531 17.445312 L 16.332031 19.078125 L 12.695312 22.851562 L 10.878906 24.738281 L 9.441406 26.21875 C 9.464844 26.230469 9.484375 26.242188 9.503906 26.253906 C 9.507812 26.257812 9.511719 26.257812 9.515625 26.261719 C 9.53125 26.273438 9.546875 26.285156 9.5625 26.296875 C 9.570312 26.300781 9.574219 26.308594 9.582031 26.3125 C 9.59375 26.324219 9.605469 26.335938 9.617188 26.34375 C 9.625 26.355469 9.636719 26.363281 9.644531 26.371094 C 9.652344 26.382812 9.660156 26.390625 9.667969 26.398438 C 9.679688 26.410156 9.6875 26.425781 9.699219 26.4375 C 9.703125 26.445312 9.710938 26.453125 9.714844 26.460938 C 9.726562 26.476562 9.738281 26.492188 9.746094 26.511719 C 9.75 26.515625 9.753906 26.519531 9.757812 26.527344 C 9.769531 26.546875 9.78125 26.566406 9.789062 26.589844 C 9.792969 26.59375 9.792969 26.597656 9.796875 26.601562 C 9.808594 26.625 9.820312 26.652344 9.828125 26.679688 C 9.832031 26.691406 9.835938 26.699219 9.839844 26.710938 L 9.855469 26.757812 C 9.871094 26.75 9.886719 26.742188 9.902344 26.730469 C 9.902344 26.730469 9.902344 26.730469 9.90625 26.730469 C 9.9375 26.707031 9.972656 26.683594 10 26.65625 C 10.011719 26.644531 10.023438 26.636719 10.03125 26.625 L 18.296875 18.117188 C 18.242188 18.125 18.191406 18.128906 18.136719 18.128906 C 18.109375 18.128906 18.082031 18.128906 18.050781 18.125 C 18.015625 18.121094 17.980469 18.105469 17.953125 18.082031 C 17.894531 18.035156 17.867188 17.957031 17.882812 17.886719 C 17.890625 17.847656 17.910156 17.816406 17.9375 17.789062 Z M 18.5625 16.75 L 18.757812 16.710938 L 18.714844 16.707031 L 18.613281 16.699219 Z M 15.257812 18.511719 L 16.214844 17.53125 L 18.789062 14.882812 L 21.515625 12.085938 L 21.507812 12.078125 L 21.058594 11.613281 L 21.027344 11.582031 L 21.003906 11.554688 L 20.5 12.078125 L 20.40625 12.175781 L 19.5625 13.058594 L 19.507812 13.117188 L 17.390625 15.324219 L 17.257812 15.464844 L 16.886719 15.855469 L 16.738281 16.007812 L 16.410156 16.347656 C 16.40625 16.367188 16.402344 16.382812 16.398438 16.398438 C 16.382812 16.460938 16.363281 16.527344 16.355469 16.585938 C 16.347656 16.644531 16.34375 16.707031 16.351562 16.769531 C 16.359375 16.835938 16.359375 16.90625 16.351562 16.972656 C 16.339844 17.109375 16.296875 17.242188 16.234375 17.363281 C 16.21875 17.394531 16.199219 17.421875 16.179688 17.453125 C 16.15625 17.484375 16.125 17.515625 16.085938 17.53125 C 16.007812 17.570312 15.914062 17.558594 15.847656 17.503906 C 15.8125 17.476562 15.789062 17.441406 15.773438 17.402344 C 15.761719 17.355469 15.757812 17.332031 15.75 17.296875 L 15.707031 17.109375 L 15.703125 17.089844 L 15.289062 17.519531 C 15.28125 17.542969 15.269531 17.566406 15.257812 17.589844 C 15.222656 17.652344 15.1875 17.707031 15.144531 17.761719 C 15.132812 17.773438 15.121094 17.785156 15.109375 17.800781 C 15.097656 17.8125 15.089844 17.824219 15.070312 17.839844 C 15.054688 17.851562 15.039062 17.855469 15.027344 17.863281 C 14.996094 17.878906 14.964844 17.890625 14.933594 17.894531 L 8.367188 24.753906 C 8.355469 24.765625 8.347656 24.777344 8.335938 24.789062 C 8.3125 24.8125 8.292969 24.835938 8.277344 24.863281 C 8.265625 24.878906 8.253906 24.898438 8.242188 24.914062 C 8.261719 24.917969 8.28125 24.921875 8.296875 24.925781 C 8.308594 24.929688 8.316406 24.933594 8.324219 24.9375 C 8.347656 24.945312 8.367188 24.953125 8.390625 24.960938 C 8.394531 24.964844 8.398438 24.96875 8.402344 24.96875 C 8.417969 24.976562 8.433594 24.984375 8.449219 24.996094 C 8.457031 25 8.460938 25.003906 8.46875 25.007812 C 8.480469 25.015625 8.492188 25.023438 8.503906 25.035156 C 8.511719 25.039062 8.515625 25.042969 8.523438 25.050781 C 8.535156 25.058594 8.546875 25.070312 8.554688 25.078125 C 8.5625 25.085938 8.566406 25.089844 8.574219 25.097656 C 8.582031 25.109375 8.59375 25.117188 8.601562 25.128906 C 8.609375 25.136719 8.613281 25.144531 8.621094 25.152344 C 8.628906 25.164062 8.636719 25.175781 8.644531 25.1875 C 8.652344 25.195312 8.65625 25.203125 8.660156 25.210938 C 8.667969 25.222656 8.675781 25.234375 8.683594 25.246094 C 8.6875 25.257812 8.691406 25.269531 8.699219 25.277344 C 8.699219 25.285156 8.703125 25.289062 8.707031 25.292969 L 11.738281 22.152344 Z M 21.824219 26.824219 C 21.828125 26.832031 21.832031 26.84375 21.835938 26.855469 L 21.804688 26.867188 L 21.800781 26.867188 C 21.789062 26.875 21.777344 26.882812 21.761719 26.886719 C 21.714844 26.910156 21.671875 26.933594 21.628906 26.960938 C 21.613281 26.972656 21.601562 26.980469 21.585938 26.992188 C 21.5625 27.007812 21.535156 27.027344 21.511719 27.042969 C 21.496094 27.058594 21.484375 27.070312 21.46875 27.085938 C 21.449219 27.101562 21.429688 27.121094 21.410156 27.140625 C 21.394531 27.152344 21.382812 27.171875 21.371094 27.1875 C 21.355469 27.207031 21.339844 27.222656 21.324219 27.242188 C 21.3125 27.261719 21.300781 27.28125 21.285156 27.300781 C 21.273438 27.320312 21.261719 27.339844 21.253906 27.359375 C 21.242188 27.378906 21.230469 27.402344 21.21875 27.425781 C 21.210938 27.445312 21.203125 27.464844 21.195312 27.484375 C 21.1875 27.507812 21.179688 27.535156 21.167969 27.5625 C 21.164062 27.582031 21.160156 27.601562 21.152344 27.621094 C 21.144531 27.648438 21.140625 27.683594 21.132812 27.714844 C 21.132812 27.726562 21.128906 27.738281 21.128906 27.75 C 20.53125 27.796875 19.90625 27.808594 19.296875 27.789062 C 19.296875 27.789062 19.292969 27.789062 19.292969 27.789062 C 19.289062 27.773438 19.285156 27.761719 19.277344 27.75 C 19.265625 27.726562 19.257812 27.703125 19.246094 27.683594 C 19.234375 27.664062 19.222656 27.648438 19.214844 27.628906 C 19.203125 27.609375 19.191406 27.589844 19.175781 27.570312 C 19.164062 27.550781 19.152344 27.535156 19.140625 27.519531 C 19.125 27.5 19.113281 27.484375 19.097656 27.464844 C 19.082031 27.449219 19.066406 27.433594 19.050781 27.417969 C 19.039062 27.402344 19.023438 27.386719 19.011719 27.375 C 18.992188 27.359375 18.972656 27.34375 18.953125 27.328125 C 18.941406 27.316406 18.925781 27.304688 18.910156 27.292969 C 18.890625 27.277344 18.867188 27.261719 18.84375 27.246094 C 18.832031 27.238281 18.816406 27.226562 18.804688 27.21875 C 18.777344 27.203125 18.75 27.191406 18.722656 27.179688 C 18.710938 27.171875 18.695312 27.164062 18.683594 27.160156 C 18.644531 27.140625 18.601562 27.125 18.554688 27.109375 L 18.535156 27.101562 L 18.460938 27.078125 C 18.484375 27.0625 18.503906 27.046875 18.523438 27.03125 C 18.566406 27 18.613281 26.96875 18.65625 26.9375 C 18.765625 26.863281 18.882812 26.792969 19.003906 26.722656 C 19.007812 26.71875 19.011719 26.714844 19.019531 26.714844 C 19.0625 26.6875 19.109375 26.664062 19.15625 26.636719 C 19.195312 26.648438 19.234375 26.660156 19.273438 26.667969 C 19.695312 26.773438 20.167969 26.824219 20.640625 26.824219 C 21.003906 26.824219 21.367188 26.792969 21.707031 26.730469 C 21.734375 26.726562 21.761719 26.722656 21.789062 26.714844 C 21.796875 26.738281 21.804688 26.761719 21.8125 26.785156 C 21.816406 26.792969 21.820312 26.804688 21.824219 26.8125 C 21.824219 26.816406 21.824219 26.820312 21.824219 26.824219 Z M 19.628906 27.054688 C 19.597656 27 19.550781 26.957031 19.503906 26.921875 C 19.457031 26.886719 19.402344 26.855469 19.347656 26.832031 C 19.292969 26.808594 19.238281 26.789062 19.179688 26.78125 C 19.121094 26.769531 19.058594 26.765625 18.996094 26.777344 C 19.046875 26.816406 19.097656 26.84375 19.148438 26.871094 C 19.199219 26.898438 19.25 26.921875 19.300781 26.945312 C 19.351562 26.964844 19.40625 26.988281 19.460938 27.007812 C 19.511719 27.027344 19.570312 27.042969 19.628906 27.054688 Z M 28.597656 25.785156 C 28.578125 25.816406 28.554688 25.851562 28.539062 25.882812 C 28.53125 25.898438 28.527344 25.910156 28.519531 25.925781 C 28.511719 25.945312 28.5 25.964844 28.492188 25.984375 C 28.488281 26 28.484375 26.015625 28.480469 26.03125 C 28.472656 26.050781 28.464844 26.074219 28.460938 26.09375 C 28.457031 26.109375 28.457031 26.125 28.453125 26.140625 C 28.449219 26.164062 28.445312 26.183594 28.445312 26.207031 C 28.441406 26.222656 28.445312 26.238281 28.441406 26.253906 C 28.441406 26.277344 28.441406 26.300781 28.441406 26.324219 C 28.441406 26.34375 28.445312 26.359375 28.445312 26.375 C 28.445312 26.402344 28.449219 26.425781 28.453125 26.449219 C 28.453125 26.46875 28.457031 26.484375 28.460938 26.503906 C 28.464844 26.527344 28.472656 26.554688 28.476562 26.582031 C 28.480469 26.601562 28.488281 26.617188 28.492188 26.636719 C 28.496094 26.65625 28.503906 26.675781 28.511719 26.695312 C 28.507812 26.695312 28.507812 26.695312 28.507812 26.695312 C 28.035156 27.046875 27.574219 27.300781 27.128906 27.457031 C 27.125 27.453125 27.117188 27.449219 27.113281 27.445312 C 26.71875 27.140625 26.171875 27.066406 25.699219 27.117188 C 25.652344 27.121094 25.605469 27.128906 25.5625 27.136719 L 25.660156 27.046875 C 25.660156 27.042969 25.664062 27.039062 25.667969 27.035156 L 25.777344 26.9375 L 26.066406 26.675781 L 26.238281 26.515625 C 26.269531 26.515625 26.296875 26.515625 26.328125 26.515625 C 26.847656 26.507812 27.609375 26.324219 28.460938 25.859375 C 28.503906 25.835938 28.550781 25.8125 28.597656 25.785156 Z M 26.882812 26.761719 C 26.769531 26.664062 26.621094 26.625 26.476562 26.625 C 26.40625 26.625 26.332031 26.632812 26.265625 26.652344 C 26.195312 26.671875 26.128906 26.695312 26.066406 26.738281 C 26.140625 26.746094 26.207031 26.746094 26.277344 26.746094 L 26.476562 26.746094 C 26.542969 26.746094 26.605469 26.75 26.675781 26.753906 C 26.742188 26.753906 26.808594 26.761719 26.882812 26.761719 Z M 26.882812 26.761719 " fill-opacity="1" fill-rule="nonzero"/><path fill="#007ae6" d="M 27.671875 16.832031 C 27.5625 16.886719 27.457031 16.9375 27.34375 16.984375 C 27.320312 16.996094 27.292969 17.007812 27.269531 17.019531 C 25.132812 17.953125 22.6875 18.109375 20.503906 18.109375 C 20.394531 18.109375 20.289062 18.109375 20.179688 18.109375 L 20.09375 18.109375 L 20.101562 18.066406 C 20.285156 18.003906 20.464844 17.917969 20.617188 17.789062 C 20.703125 17.71875 20.777344 17.640625 20.84375 17.554688 C 20.878906 17.511719 20.902344 17.472656 20.941406 17.4375 C 20.976562 17.402344 21.019531 17.378906 21.070312 17.359375 C 21.070312 17.359375 21.070312 17.359375 21.066406 17.359375 C 21.097656 17.355469 21.128906 17.351562 21.15625 17.347656 C 21.179688 17.34375 21.199219 17.339844 21.21875 17.335938 C 21.253906 17.332031 21.289062 17.324219 21.328125 17.316406 C 21.347656 17.3125 21.367188 17.308594 21.390625 17.304688 C 21.425781 17.296875 21.460938 17.289062 21.496094 17.277344 C 21.519531 17.273438 21.539062 17.265625 21.5625 17.261719 C 21.597656 17.253906 21.632812 17.242188 21.671875 17.230469 C 21.691406 17.226562 21.714844 17.21875 21.738281 17.210938 C 21.773438 17.199219 21.808594 17.1875 21.847656 17.175781 C 21.867188 17.167969 21.890625 17.160156 21.914062 17.152344 C 21.949219 17.140625 21.988281 17.125 22.023438 17.113281 C 22.046875 17.105469 22.070312 17.09375 22.09375 17.085938 C 22.128906 17.070312 22.167969 17.054688 22.203125 17.042969 C 22.226562 17.03125 22.25 17.019531 22.277344 17.007812 C 22.3125 16.992188 22.347656 16.976562 22.382812 16.960938 C 22.410156 16.949219 22.433594 16.9375 22.460938 16.925781 C 22.496094 16.910156 22.53125 16.890625 22.566406 16.875 C 22.589844 16.863281 22.617188 16.847656 22.644531 16.832031 C 22.679688 16.816406 22.714844 16.796875 22.746094 16.78125 C 22.773438 16.765625 22.804688 16.75 22.832031 16.734375 C 22.863281 16.714844 22.898438 16.695312 22.929688 16.675781 C 22.960938 16.660156 22.988281 16.640625 23.019531 16.625 C 23.050781 16.605469 23.082031 16.585938 23.113281 16.566406 C 23.144531 16.546875 23.175781 16.527344 23.207031 16.507812 C 23.238281 16.488281 23.269531 16.46875 23.296875 16.449219 C 23.332031 16.425781 23.367188 16.402344 23.398438 16.378906 C 23.425781 16.363281 23.457031 16.34375 23.484375 16.324219 C 23.519531 16.296875 23.558594 16.269531 23.597656 16.242188 C 23.621094 16.222656 23.644531 16.207031 23.667969 16.191406 C 23.726562 16.144531 23.789062 16.101562 23.851562 16.050781 C 24.03125 15.910156 24.183594 15.742188 24.308594 15.550781 C 24.632812 15.046875 24.871094 14.574219 25.03125 14.113281 C 25.058594 14.113281 25.085938 14.109375 25.113281 14.105469 L 25.183594 14.097656 C 25.199219 14.097656 25.203125 14.097656 25.226562 14.09375 C 25.242188 14.089844 25.257812 14.082031 25.273438 14.074219 C 25.308594 14.058594 25.335938 14.035156 25.355469 14.007812 C 25.363281 13.992188 25.371094 13.976562 25.378906 13.957031 L 25.390625 13.925781 L 25.433594 13.785156 C 25.460938 13.695312 25.488281 13.601562 25.511719 13.507812 C 25.5625 13.320312 25.601562 13.128906 25.636719 12.941406 C 25.703125 12.558594 25.734375 12.164062 25.664062 11.78125 C 25.664062 11.777344 25.65625 11.769531 25.652344 11.769531 C 25.644531 11.769531 25.636719 11.777344 25.636719 11.785156 C 25.617188 12.167969 25.585938 12.542969 25.515625 12.917969 C 25.484375 13.105469 25.4375 13.289062 25.386719 13.472656 C 25.363281 13.5625 25.335938 13.65625 25.308594 13.746094 L 25.265625 13.882812 L 25.253906 13.914062 C 25.25 13.921875 25.25 13.925781 25.246094 13.933594 C 25.238281 13.941406 25.226562 13.949219 25.21875 13.957031 C 25.207031 13.960938 25.199219 13.960938 25.167969 13.964844 L 25.097656 13.972656 C 25.050781 13.976562 25.007812 13.984375 24.957031 13.988281 C 24.867188 13.996094 24.773438 14.003906 24.675781 14.003906 C 24.488281 14.015625 24.300781 14.015625 24.113281 14.003906 C 23.925781 13.996094 23.738281 13.976562 23.554688 13.945312 C 23.371094 13.917969 23.1875 13.875 23.003906 13.824219 C 22.824219 13.777344 22.644531 13.714844 22.472656 13.644531 C 22.429688 13.625 22.382812 13.609375 22.34375 13.589844 L 22.21875 13.53125 C 22.195312 13.519531 22.179688 13.492188 22.179688 13.464844 C 22.179688 13.457031 22.179688 13.449219 22.183594 13.441406 L 22.191406 13.410156 L 22.214844 13.339844 C 22.324219 12.976562 22.449219 12.613281 22.582031 12.257812 C 22.71875 11.898438 22.867188 11.546875 23.039062 11.207031 C 23.207031 10.863281 23.40625 10.539062 23.601562 10.210938 C 23.605469 10.207031 23.605469 10.195312 23.597656 10.191406 C 23.59375 10.1875 23.582031 10.1875 23.578125 10.195312 C 23.351562 10.472656 23.167969 10.785156 23 11.105469 C 23.007812 11.085938 23.015625 11.070312 23.027344 11.054688 C 23.039062 11.03125 23.050781 11.003906 23.066406 10.980469 L 22.707031 10.617188 C 22.59375 10.507812 22.449219 10.449219 22.296875 10.449219 C 22.144531 10.449219 22 10.511719 21.890625 10.625 L 21.40625 11.128906 L 21.382812 11.15625 C 21.382812 11.15625 21.378906 11.15625 21.378906 11.160156 L 21.339844 11.203125 L 21.097656 11.453125 L 21.035156 11.519531 C 21.03125 11.523438 21.03125 11.523438 21.027344 11.527344 L 21.003906 11.554688 L 20.5 12.078125 L 20.40625 12.175781 L 19.5625 13.058594 L 19.507812 13.117188 C 19.230469 12.855469 18.984375 12.585938 18.761719 12.308594 C 18.742188 12.285156 18.726562 12.265625 18.710938 12.242188 C 18.582031 12.078125 18.460938 11.910156 18.347656 11.738281 C 18.3125 11.675781 18.320312 11.597656 18.371094 11.546875 C 19.0625 10.871094 19.679688 10.34375 20.25 9.9375 C 20.433594 9.9375 20.617188 9.921875 20.800781 9.894531 L 20.832031 9.992188 C 20.859375 10.078125 20.921875 10.144531 21 10.171875 C 21.125 10.21875 21.273438 10.242188 21.429688 10.242188 C 22.019531 10.242188 22.746094 9.902344 23.039062 9.128906 C 23.070312 9.039062 23.074219 8.941406 23.042969 8.851562 L 23.003906 8.734375 C 23.082031 8.640625 23.15625 8.542969 23.21875 8.441406 L 23.507812 8.5 C 24.382812 8.664062 25.125 9.210938 25.539062 9.992188 C 26.507812 11.816406 27.226562 13.90625 27.800781 16.5625 C 27.824219 16.671875 27.769531 16.78125 27.671875 16.832031 Z M 22.375 13.941406 L 22.390625 13.902344 L 21.582031 14.734375 C 21.625 14.714844 21.667969 14.691406 21.710938 14.671875 C 22.019531 14.515625 22.253906 14.257812 22.375 13.941406 Z M 23.519531 20.753906 C 23.488281 20.65625 23.4375 20.558594 23.386719 20.46875 C 23.332031 20.378906 23.265625 20.292969 23.195312 20.21875 C 23.125 20.144531 23.058594 20.070312 22.988281 20 C 22.847656 19.851562 22.703125 19.710938 22.550781 19.574219 C 22.664062 19.742188 22.789062 19.902344 22.917969 20.0625 C 22.980469 20.140625 23.042969 20.21875 23.109375 20.296875 C 23.175781 20.371094 23.234375 20.449219 23.285156 20.53125 C 23.304688 20.5625 23.320312 20.597656 23.339844 20.628906 C 23.367188 20.683594 23.390625 20.734375 23.414062 20.792969 C 23.449219 20.886719 23.484375 20.980469 23.523438 21.074219 C 23.601562 21.261719 23.683594 21.449219 23.773438 21.632812 C 23.730469 21.433594 23.671875 21.238281 23.613281 21.042969 C 23.582031 20.945312 23.550781 20.847656 23.519531 20.753906 Z M 23.519531 20.753906 " fill-opacity="1" fill-rule="nonzero"/><g clip-path="url(#8c50258ea4)"><path fill="#fe9a38" d="M 29.195312 26.136719 C 28.964844 26.34375 28.734375 26.53125 28.511719 26.695312 C 28.503906 26.675781 28.496094 26.65625 28.492188 26.636719 C 28.488281 26.617188 28.480469 26.601562 28.476562 26.582031 C 28.472656 26.554688 28.464844 26.527344 28.460938 26.503906 C 28.457031 26.484375 28.453125 26.46875 28.453125 26.449219 C 28.449219 26.425781 28.445312 26.402344 28.445312 26.375 C 28.445312 26.359375 28.441406 26.34375 28.441406 26.324219 C 28.441406 26.300781 28.441406 26.277344 28.441406 26.253906 C 28.445312 26.238281 28.441406 26.222656 28.445312 26.207031 C 28.445312 26.183594 28.449219 26.164062 28.453125 26.140625 C 28.457031 26.125 28.457031 26.109375 28.460938 26.09375 C 28.464844 26.074219 28.472656 26.050781 28.480469 26.03125 C 28.484375 26.015625 28.488281 26 28.492188 25.984375 C 28.5 25.964844 28.511719 25.945312 28.519531 25.925781 C 28.527344 25.910156 28.53125 25.898438 28.539062 25.882812 C 28.554688 25.851562 28.578125 25.816406 28.597656 25.785156 C 28.679688 25.734375 28.757812 25.683594 28.832031 25.628906 C 28.855469 25.609375 28.878906 25.597656 28.898438 25.578125 C 29.039062 25.714844 29.136719 25.898438 29.195312 26.136719 Z M 25.699219 27.117188 C 25.652344 27.121094 25.605469 27.128906 25.5625 27.136719 L 25.335938 27.339844 C 25.269531 27.390625 25.226562 27.457031 25.203125 27.53125 C 25.808594 27.726562 26.453125 27.703125 27.128906 27.457031 C 27.125 27.453125 27.117188 27.449219 27.113281 27.445312 C 26.71875 27.140625 26.171875 27.066406 25.699219 27.117188 Z M 21.804688 26.867188 L 21.800781 26.867188 C 21.789062 26.875 21.777344 26.882812 21.761719 26.886719 C 21.714844 26.910156 21.671875 26.933594 21.628906 26.960938 C 21.613281 26.972656 21.601562 26.980469 21.585938 26.992188 C 21.5625 27.007812 21.535156 27.027344 21.511719 27.042969 C 21.496094 27.058594 21.484375 27.070312 21.46875 27.085938 C 21.449219 27.101562 21.429688 27.121094 21.410156 27.140625 C 21.394531 27.152344 21.382812 27.171875 21.371094 27.1875 C 21.355469 27.207031 21.339844 27.222656 21.324219 27.242188 C 21.3125 27.261719 21.300781 27.28125 21.285156 27.300781 C 21.273438 27.320312 21.261719 27.339844 21.253906 27.359375 C 21.242188 27.378906 21.230469 27.402344 21.21875 27.425781 C 21.210938 27.445312 21.203125 27.464844 21.195312 27.484375 C 21.1875 27.507812 21.179688 27.535156 21.167969 27.5625 C 21.164062 27.582031 21.160156 27.601562 21.152344 27.621094 C 21.144531 27.648438 21.140625 27.683594 21.132812 27.714844 C 21.132812 27.726562 21.128906 27.738281 21.128906 27.75 C 21.390625 27.730469 21.648438 27.703125 21.898438 27.671875 C 21.9375 27.394531 21.917969 27.121094 21.835938 26.855469 Z M 19.246094 27.683594 C 19.234375 27.664062 19.222656 27.648438 19.214844 27.628906 C 19.203125 27.609375 19.191406 27.589844 19.175781 27.570312 C 19.164062 27.550781 19.152344 27.535156 19.140625 27.519531 C 19.125 27.5 19.113281 27.484375 19.097656 27.464844 C 19.082031 27.449219 19.066406 27.433594 19.050781 27.417969 C 19.039062 27.402344 19.023438 27.386719 19.011719 27.375 C 18.992188 27.359375 18.972656 27.34375 18.953125 27.328125 C 18.941406 27.316406 18.925781 27.304688 18.910156 27.292969 C 18.890625 27.277344 18.867188 27.261719 18.84375 27.246094 C 18.832031 27.238281 18.816406 27.226562 18.804688 27.21875 C 18.777344 27.203125 18.75 27.191406 18.722656 27.179688 C 18.710938 27.171875 18.695312 27.164062 18.683594 27.160156 C 18.644531 27.140625 18.601562 27.125 18.554688 27.109375 L 18.535156 27.101562 L 18.460938 27.078125 C 18.390625 27.132812 18.320312 27.1875 18.253906 27.246094 C 18.121094 27.363281 18.039062 27.523438 18.023438 27.695312 C 18.425781 27.742188 18.855469 27.773438 19.292969 27.789062 C 19.289062 27.773438 19.285156 27.761719 19.277344 27.75 C 19.265625 27.726562 19.257812 27.703125 19.246094 27.683594 Z M 15.347656 18.597656 L 17.601562 16.25 L 18.855469 14.945312 L 21.554688 12.128906 L 21.515625 12.085938 L 18.789062 14.882812 L 16.214844 17.53125 L 15.257812 18.511719 L 11.738281 22.152344 L 8.707031 25.292969 C 8.714844 25.308594 8.71875 25.320312 8.726562 25.335938 C 8.726562 25.335938 8.726562 25.339844 8.726562 25.339844 C 8.738281 25.363281 8.746094 25.386719 8.753906 25.414062 L 11.828125 22.242188 Z M 22.296875 10.449219 C 22.144531 10.449219 22 10.511719 21.890625 10.625 L 21.40625 11.128906 L 21.464844 11.1875 L 21.929688 11.664062 L 21.964844 11.699219 L 22.484375 12.230469 L 22.492188 12.238281 C 22.652344 11.824219 22.820312 11.449219 23 11.105469 C 23.007812 11.085938 23.015625 11.070312 23.027344 11.054688 C 23.039062 11.03125 23.050781 11.003906 23.066406 10.980469 L 22.707031 10.617188 C 22.59375 10.507812 22.449219 10.449219 22.296875 10.449219 Z M 17.816406 17.4375 L 17.792969 17.429688 C 17.785156 17.429688 17.777344 17.425781 17.769531 17.421875 L 16.246094 18.996094 L 12.613281 22.769531 L 10.792969 24.65625 L 9.34375 26.171875 C 9.367188 26.179688 9.390625 26.1875 9.410156 26.199219 C 9.421875 26.207031 9.433594 26.210938 9.441406 26.21875 L 10.878906 24.738281 L 12.695312 22.851562 L 16.332031 19.078125 L 17.894531 17.445312 C 17.875 17.445312 17.855469 17.441406 17.839844 17.441406 Z M 18.382812 16.789062 L 18.484375 16.765625 L 18.5625 16.75 L 18.613281 16.699219 L 18.519531 16.6875 C 18.503906 16.6875 18.496094 16.6875 18.484375 16.683594 Z M 19.089844 16.0625 C 19.097656 16.0625 19.113281 16.0625 19.121094 16.0625 L 19.121094 16.058594 C 19.117188 16.054688 19.109375 16.050781 19.105469 16.042969 Z M 22.257812 12.851562 L 22.230469 12.824219 L 21.714844 13.351562 L 19.894531 15.230469 L 19.671875 15.460938 C 19.679688 15.464844 19.691406 15.464844 19.703125 15.464844 C 19.726562 15.472656 19.753906 15.476562 19.78125 15.480469 L 19.957031 15.296875 L 21.769531 13.402344 L 22.238281 12.910156 L 22.257812 12.886719 C 22.261719 12.878906 22.265625 12.871094 22.265625 12.863281 Z M 22.257812 12.851562 " fill-opacity="1" fill-rule="nonzero"/></g><g clip-path="url(#91c2c6aa96)"><path fill="#122d46" d="M 7.949219 27.320312 L 7.960938 27.398438 L 7.921875 27.414062 L 7.84375 27.441406 L 7.492188 27.554688 C 7.460938 27.566406 7.429688 27.574219 7.398438 27.574219 C 7.367188 27.574219 7.335938 27.566406 7.308594 27.554688 C 6.460938 28.21875 5.304688 28.019531 4.289062 27.847656 C 3.9375 27.785156 3.605469 27.730469 3.296875 27.707031 C 2.863281 27.675781 2.246094 27.683594 1.933594 28.117188 C 1.839844 28.242188 1.816406 28.394531 1.867188 28.53125 C 1.914062 28.675781 2.039062 28.78125 2.191406 28.824219 C 2.34375 28.863281 2.519531 28.859375 2.660156 28.855469 C 2.707031 28.859375 2.742188 28.890625 2.742188 28.9375 C 2.746094 28.980469 2.707031 29.019531 2.664062 29.019531 C 2.625 29.019531 2.582031 29.023438 2.539062 29.023438 C 2.417969 29.023438 2.28125 29.015625 2.152344 28.980469 C 1.945312 28.925781 1.78125 28.777344 1.714844 28.585938 C 1.648438 28.398438 1.679688 28.191406 1.804688 28.019531 C 2.164062 27.519531 2.835938 27.507812 3.308594 27.542969 C 3.625 27.566406 3.960938 27.625 4.3125 27.6875 C 5.332031 27.859375 6.382812 28.039062 7.171875 27.457031 C 7.105469 27.367188 7.09375 27.253906 7.144531 27.152344 L 7.347656 26.730469 L 7.363281 26.703125 L 7.378906 26.664062 L 7.414062 26.679688 L 7.429688 26.683594 C 7.4375 26.6875 7.445312 26.691406 7.453125 26.695312 C 7.734375 26.808594 7.902344 27.019531 7.949219 27.320312 Z M 17.394531 5.152344 C 17.410156 5.144531 17.433594 5.148438 17.449219 5.167969 C 17.722656 5.519531 18.085938 5.679688 18.421875 5.589844 C 18.832031 5.484375 19.125 5.027344 19.230469 4.34375 C 19.234375 4.324219 19.25 4.304688 19.269531 4.300781 C 19.285156 4.296875 19.308594 4.300781 19.320312 4.316406 C 19.683594 4.738281 20.046875 4.933594 20.375 4.878906 C 20.699219 4.828125 20.972656 4.539062 21.183594 4.027344 C 21.195312 4 21.222656 4 21.230469 4 C 21.238281 3.996094 21.261719 4 21.273438 4.027344 C 21.597656 4.710938 22.203125 5.0625 23.082031 5.074219 C 23.082031 5.074219 23.082031 5.074219 23.085938 5.074219 C 23.085938 5.074219 23.292969 4.472656 23.808594 4.417969 C 23.8125 4.417969 23.8125 4.417969 23.816406 4.417969 C 23.851562 4.414062 23.890625 4.414062 23.929688 4.417969 C 24.273438 4.449219 24.585938 4.722656 24.710938 5.105469 L 24.753906 5.265625 C 24.863281 4.875 24.910156 4.472656 24.894531 4.074219 C 24.859375 3.085938 24.445312 2.109375 23.707031 1.355469 C 22.785156 0.410156 21.542969 0.015625 20.472656 0.328125 C 20.421875 0.339844 20.375 0.34375 20.328125 0.335938 C 19.226562 0.203125 18.132812 0.523438 17.246094 1.238281 C 16.421875 1.910156 15.839844 2.886719 15.65625 3.914062 C 15.5625 4.492188 15.617188 5.046875 15.792969 5.511719 C 15.96875 6.003906 16.320312 6.398438 16.617188 6.5625 C 16.871094 6.457031 17.050781 6.25 17.171875 5.964844 C 17.300781 5.707031 17.347656 5.429688 17.359375 5.195312 C 17.363281 5.164062 17.386719 5.152344 17.394531 5.152344 Z M 26.328125 26.515625 C 26.847656 26.507812 27.609375 26.324219 28.460938 25.859375 C 28.503906 25.835938 28.550781 25.8125 28.597656 25.785156 C 28.679688 25.734375 28.757812 25.683594 28.832031 25.628906 C 28.855469 25.609375 28.878906 25.597656 28.898438 25.578125 C 28.9375 25.550781 28.972656 25.527344 29.007812 25.5 C 29.019531 25.488281 29.023438 25.46875 29.019531 25.449219 L 27.148438 20.675781 C 27.09375 20.539062 27.082031 20.390625 27.121094 20.253906 C 27.386719 19.222656 27.46875 18.035156 27.34375 16.984375 C 27.320312 16.996094 27.292969 17.007812 27.269531 17.019531 C 25.132812 17.953125 22.6875 18.109375 20.503906 18.109375 C 20.394531 18.109375 20.289062 18.109375 20.179688 18.109375 L 20.097656 18.109375 C 19.84375 19.21875 19.65625 20.402344 19.472656 22.058594 C 19.460938 22.15625 19.453125 22.257812 19.449219 22.359375 L 19.003906 26.558594 C 19.003906 26.578125 19.015625 26.597656 19.035156 26.601562 C 19.074219 26.617188 19.117188 26.628906 19.15625 26.636719 C 19.195312 26.648438 19.234375 26.660156 19.273438 26.667969 C 19.695312 26.773438 20.167969 26.824219 20.640625 26.824219 C 21.003906 26.824219 21.367188 26.792969 21.707031 26.730469 C 21.734375 26.726562 21.761719 26.722656 21.789062 26.714844 C 21.863281 26.699219 21.941406 26.683594 22.015625 26.667969 C 22.03125 26.660156 22.042969 26.648438 22.042969 26.632812 C 22.101562 26.292969 22.175781 25.945312 22.25 25.582031 C 22.421875 24.738281 22.597656 23.867188 22.664062 22.933594 C 22.683594 22.613281 22.75 22.296875 22.855469 21.996094 L 23.339844 20.628906 C 23.320312 20.597656 23.304688 20.5625 23.285156 20.53125 C 23.234375 20.449219 23.175781 20.371094 23.109375 20.296875 C 23.042969 20.21875 22.980469 20.140625 22.917969 20.0625 C 22.789062 19.902344 22.664062 19.742188 22.550781 19.574219 C 22.703125 19.710938 22.847656 19.851562 22.988281 20 C 23.058594 20.070312 23.125 20.144531 23.195312 20.21875 C 23.265625 20.292969 23.332031 20.378906 23.386719 20.46875 C 23.4375 20.558594 23.488281 20.65625 23.519531 20.753906 C 23.550781 20.847656 23.582031 20.945312 23.613281 21.042969 C 23.671875 21.238281 23.730469 21.433594 23.773438 21.632812 L 24.464844 23.316406 C 24.515625 23.4375 24.570312 23.554688 24.632812 23.667969 L 26.238281 26.515625 C 26.269531 26.515625 26.296875 26.515625 26.328125 26.515625 Z M 29.226562 26.332031 C 29.226562 26.320312 29.226562 26.3125 29.226562 26.304688 C 29.222656 26.292969 29.222656 26.285156 29.222656 26.273438 C 29.21875 26.238281 29.210938 26.203125 29.203125 26.171875 C 29.199219 26.160156 29.195312 26.148438 29.195312 26.136719 C 28.964844 26.34375 28.734375 26.53125 28.511719 26.695312 C 28.507812 26.695312 28.507812 26.695312 28.507812 26.695312 C 28.035156 27.046875 27.574219 27.300781 27.128906 27.457031 C 26.453125 27.703125 25.808594 27.726562 25.203125 27.53125 C 25.199219 27.535156 25.199219 27.542969 25.195312 27.550781 C 25.1875 27.578125 25.183594 27.613281 25.179688 27.648438 C 25.179688 27.683594 25.183594 27.71875 25.1875 27.75 C 25.191406 27.761719 25.191406 27.769531 25.191406 27.777344 C 25.195312 27.78125 25.195312 27.785156 25.195312 27.789062 C 25.230469 27.914062 25.328125 28.015625 25.457031 28.050781 C 25.6875 28.113281 25.929688 28.140625 26.183594 28.140625 C 26.4375 28.140625 26.710938 28.109375 26.992188 28.046875 C 27.179688 28.003906 27.363281 27.941406 27.53125 27.859375 C 28.089844 27.585938 28.597656 27.238281 29.035156 26.820312 C 29.160156 26.703125 29.230469 26.539062 29.226562 26.367188 C 29.226562 26.355469 29.226562 26.34375 29.226562 26.332031 Z M 21.265625 6.351562 C 21.136719 6.433594 21.113281 6.632812 21.210938 6.796875 C 21.308594 6.960938 21.496094 7.027344 21.625 6.949219 C 21.753906 6.867188 21.78125 6.671875 21.683594 6.507812 C 21.582031 6.339844 21.398438 6.273438 21.265625 6.351562 Z M 17.863281 7.476562 C 17.753906 7.546875 17.738281 7.730469 17.832031 7.886719 C 17.925781 8.046875 18.09375 8.117188 18.207031 8.046875 C 18.320312 7.976562 18.332031 7.792969 18.238281 7.636719 C 18.144531 7.480469 17.976562 7.410156 17.863281 7.476562 Z M 19.34375 7.136719 C 19.335938 7.140625 19.296875 7.152344 19.265625 7.160156 C 19.140625 7.210938 19.023438 7.292969 18.941406 7.40625 C 18.863281 7.523438 18.820312 7.664062 18.824219 7.804688 C 18.832031 7.945312 18.890625 8.085938 18.992188 8.183594 C 19.089844 8.28125 19.226562 8.335938 19.355469 8.347656 C 19.484375 8.359375 19.613281 8.339844 19.734375 8.304688 C 19.746094 8.300781 19.753906 8.289062 19.75 8.277344 C 19.75 8.261719 19.738281 8.25 19.722656 8.253906 C 19.601562 8.269531 19.480469 8.273438 19.371094 8.246094 C 19.257812 8.226562 19.152344 8.171875 19.082031 8.09375 C 19.011719 8.011719 18.96875 7.90625 18.96875 7.796875 C 18.964844 7.691406 19 7.582031 19.0625 7.492188 C 19.125 7.402344 19.214844 7.335938 19.316406 7.292969 C 19.34375 7.28125 19.363281 7.277344 19.410156 7.25 C 19.449219 7.226562 19.480469 7.1875 19.496094 7.140625 C 19.5 7.117188 19.503906 7.09375 19.5 7.070312 C 19.5 7.058594 19.496094 7.042969 19.492188 7.035156 L 19.484375 7.011719 L 19.457031 6.925781 C 19.386719 6.6875 19.304688 6.453125 19.21875 6.21875 C 19.21875 6.210938 19.210938 6.203125 19.199219 6.207031 C 19.191406 6.207031 19.183594 6.21875 19.1875 6.226562 C 19.234375 6.472656 19.285156 6.714844 19.34375 6.957031 L 19.363281 7.046875 C 19.375 7.085938 19.375 7.085938 19.371094 7.101562 C 19.367188 7.117188 19.355469 7.128906 19.34375 7.136719 Z M 19.980469 8.9375 C 20.074219 8.945312 20.171875 8.929688 20.257812 8.890625 C 20.34375 8.855469 20.421875 8.800781 20.484375 8.726562 C 20.542969 8.65625 20.589844 8.574219 20.605469 8.484375 C 20.605469 8.480469 20.605469 8.476562 20.601562 8.476562 C 20.597656 8.472656 20.59375 8.472656 20.59375 8.476562 C 20.535156 8.546875 20.480469 8.605469 20.417969 8.65625 C 20.351562 8.707031 20.285156 8.75 20.210938 8.78125 C 20.140625 8.8125 20.0625 8.828125 19.980469 8.835938 C 19.902344 8.84375 19.820312 8.839844 19.730469 8.832031 C 19.730469 8.832031 19.726562 8.832031 19.722656 8.835938 C 19.722656 8.839844 19.722656 8.84375 19.726562 8.847656 C 19.800781 8.898438 19.890625 8.929688 19.980469 8.9375 Z M 21.382812 5.613281 C 21.292969 5.601562 21.203125 5.609375 21.113281 5.632812 C 20.9375 5.683594 20.78125 5.804688 20.699219 5.964844 C 20.699219 5.96875 20.695312 5.972656 20.699219 5.976562 C 20.703125 5.984375 20.710938 5.988281 20.71875 5.984375 C 20.796875 5.945312 20.867188 5.902344 20.941406 5.871094 C 21.011719 5.839844 21.082031 5.8125 21.15625 5.792969 C 21.230469 5.769531 21.304688 5.757812 21.382812 5.746094 C 21.460938 5.738281 21.542969 5.734375 21.628906 5.722656 C 21.632812 5.722656 21.636719 5.722656 21.640625 5.71875 C 21.644531 5.710938 21.640625 5.703125 21.636719 5.699219 C 21.558594 5.652344 21.472656 5.625 21.382812 5.613281 Z M 17.824219 6.96875 C 17.878906 6.945312 17.9375 6.929688 18 6.902344 C 18.003906 6.902344 18.003906 6.898438 18.007812 6.898438 C 18.007812 6.890625 18.007812 6.882812 18 6.878906 C 17.9375 6.847656 17.871094 6.835938 17.800781 6.839844 C 17.734375 6.839844 17.664062 6.855469 17.597656 6.886719 C 17.46875 6.949219 17.371094 7.078125 17.355469 7.21875 C 17.355469 7.222656 17.359375 7.230469 17.363281 7.234375 C 17.371094 7.246094 17.386719 7.246094 17.394531 7.238281 C 17.445312 7.195312 17.488281 7.15625 17.535156 7.121094 C 17.578125 7.085938 17.621094 7.058594 17.671875 7.035156 C 17.71875 7.007812 17.769531 6.988281 17.824219 6.96875 Z M 21.917969 9.550781 C 22.175781 9.425781 22.425781 9.273438 22.648438 9.089844 C 22.777344 8.980469 22.898438 8.863281 23.003906 8.734375 C 23.082031 8.640625 23.15625 8.542969 23.21875 8.441406 C 22.839844 8.871094 22.375 9.199219 21.863281 9.441406 C 21.613281 9.5625 21.347656 9.660156 21.078125 9.742188 C 20.804688 9.824219 20.53125 9.890625 20.25 9.9375 C 20.433594 9.9375 20.617188 9.921875 20.800781 9.894531 C 21.183594 9.832031 21.5625 9.71875 21.917969 9.550781 Z M 24.113281 14.003906 C 23.925781 13.996094 23.738281 13.976562 23.554688 13.945312 C 23.371094 13.917969 23.1875 13.875 23.003906 13.824219 C 22.824219 13.777344 22.644531 13.714844 22.472656 13.644531 C 22.429688 13.625 22.382812 13.609375 22.34375 13.589844 L 22.21875 13.53125 C 22.195312 13.519531 22.179688 13.492188 22.179688 13.464844 C 22.179688 13.457031 22.179688 13.449219 22.183594 13.441406 L 22.191406 13.410156 L 22.214844 13.339844 C 22.324219 12.976562 22.449219 12.613281 22.582031 12.257812 C 22.71875 11.898438 22.867188 11.546875 23.039062 11.207031 C 23.207031 10.863281 23.40625 10.539062 23.601562 10.210938 C 23.605469 10.207031 23.605469 10.195312 23.597656 10.191406 C 23.59375 10.1875 23.582031 10.1875 23.578125 10.195312 C 23.351562 10.472656 23.167969 10.785156 23 11.105469 C 22.820312 11.449219 22.652344 11.824219 22.492188 12.238281 L 22.484375 12.230469 L 21.964844 11.699219 L 21.929688 11.664062 L 21.464844 11.1875 L 21.40625 11.128906 L 21.382812 11.15625 C 21.382812 11.15625 21.378906 11.15625 21.378906 11.160156 L 21.339844 11.203125 L 21.097656 11.453125 L 21.035156 11.519531 C 21.03125 11.523438 21.03125 11.523438 21.027344 11.527344 L 21.003906 11.554688 L 21.027344 11.582031 L 21.058594 11.613281 L 21.507812 12.078125 L 21.515625 12.085938 L 21.554688 12.128906 L 21.566406 12.136719 L 22.222656 12.820312 L 22.230469 12.824219 L 22.257812 12.851562 L 22.265625 12.863281 C 22.265625 12.871094 22.261719 12.878906 22.257812 12.886719 L 22.238281 12.910156 C 22.191406 13.042969 22.148438 13.175781 22.105469 13.308594 L 22.085938 13.375 L 22.074219 13.410156 C 22.070312 13.429688 22.066406 13.445312 22.066406 13.460938 C 22.066406 13.53125 22.101562 13.597656 22.160156 13.632812 C 22.175781 13.640625 22.1875 13.644531 22.195312 13.652344 L 22.230469 13.664062 L 22.296875 13.695312 C 22.339844 13.714844 22.382812 13.734375 22.429688 13.753906 C 22.433594 13.753906 22.4375 13.757812 22.445312 13.757812 C 22.617188 13.832031 22.792969 13.890625 22.972656 13.941406 C 23.15625 13.996094 23.34375 14.039062 23.535156 14.070312 C 23.722656 14.101562 23.914062 14.121094 24.109375 14.132812 C 24.300781 14.144531 24.492188 14.144531 24.683594 14.136719 C 24.777344 14.136719 24.875 14.128906 24.96875 14.121094 C 24.992188 14.117188 25.011719 14.117188 25.03125 14.113281 C 25.058594 14.113281 25.085938 14.109375 25.113281 14.105469 L 25.183594 14.097656 C 25.199219 14.097656 25.203125 14.097656 25.226562 14.09375 C 25.242188 14.089844 25.257812 14.082031 25.273438 14.074219 C 25.308594 14.058594 25.335938 14.035156 25.355469 14.007812 C 25.363281 13.992188 25.371094 13.976562 25.378906 13.957031 L 25.390625 13.925781 L 25.433594 13.785156 C 25.460938 13.695312 25.488281 13.601562 25.511719 13.507812 C 25.5625 13.320312 25.601562 13.128906 25.636719 12.941406 C 25.703125 12.558594 25.734375 12.164062 25.664062 11.78125 C 25.664062 11.777344 25.65625 11.769531 25.652344 11.769531 C 25.644531 11.769531 25.636719 11.777344 25.636719 11.785156 C 25.617188 12.167969 25.585938 12.542969 25.515625 12.917969 C 25.484375 13.105469 25.4375 13.289062 25.386719 13.472656 C 25.363281 13.5625 25.335938 13.65625 25.308594 13.746094 L 25.265625 13.882812 L 25.253906 13.914062 C 25.25 13.921875 25.25 13.925781 25.246094 13.933594 C 25.238281 13.941406 25.226562 13.949219 25.21875 13.957031 C 25.207031 13.960938 25.199219 13.960938 25.167969 13.964844 L 25.097656 13.972656 C 25.050781 13.976562 25.007812 13.984375 24.957031 13.988281 C 24.867188 13.996094 24.773438 14.003906 24.675781 14.003906 C 24.488281 14.015625 24.300781 14.015625 24.113281 14.003906 Z M 18.136719 18.128906 C 18.191406 18.128906 18.242188 18.125 18.296875 18.117188 C 18.355469 18.105469 18.410156 18.089844 18.464844 18.070312 C 18.492188 18.058594 18.519531 18.046875 18.542969 18.035156 C 18.566406 18.023438 18.585938 18.011719 18.609375 18.003906 C 18.652344 17.988281 18.703125 17.976562 18.753906 17.964844 L 18.976562 17.914062 L 18.742188 18.085938 L 18.488281 18.28125 L 18.363281 18.378906 C 18.34375 18.394531 18.3125 18.417969 18.296875 18.449219 C 18.28125 18.480469 18.273438 18.523438 18.28125 18.558594 C 18.292969 18.628906 18.347656 18.6875 18.421875 18.703125 C 18.484375 18.707031 18.535156 18.703125 18.59375 18.695312 C 18.703125 18.675781 18.8125 18.632812 18.902344 18.566406 C 18.949219 18.53125 18.984375 18.496094 19.023438 18.472656 L 19.164062 18.398438 L 19.445312 18.253906 C 19.53125 18.207031 19.632812 18.195312 19.738281 18.167969 C 19.84375 18.144531 19.945312 18.117188 20.046875 18.085938 C 20.066406 18.082031 20.082031 18.074219 20.101562 18.066406 C 20.285156 18.003906 20.464844 17.917969 20.617188 17.789062 C 20.703125 17.71875 20.777344 17.640625 20.84375 17.554688 C 20.878906 17.511719 20.902344 17.472656 20.941406 17.4375 C 20.976562 17.402344 21.019531 17.378906 21.070312 17.359375 C 21.070312 17.359375 21.070312 17.359375 21.066406 17.359375 C 21.035156 17.355469 21.003906 17.359375 20.972656 17.371094 C 20.957031 17.375 20.941406 17.382812 20.925781 17.390625 C 20.921875 17.394531 20.914062 17.398438 20.910156 17.398438 C 20.863281 17.433594 20.828125 17.480469 20.796875 17.519531 C 20.730469 17.601562 20.660156 17.675781 20.578125 17.742188 C 20.417969 17.871094 20.226562 17.957031 20.027344 18.019531 C 19.925781 18.050781 19.824219 18.074219 19.722656 18.097656 L 19.566406 18.128906 C 19.515625 18.140625 19.460938 18.160156 19.410156 18.183594 L 19.128906 18.328125 L 18.984375 18.402344 C 18.933594 18.429688 18.890625 18.472656 18.855469 18.5 C 18.773438 18.558594 18.679688 18.59375 18.582031 18.609375 C 18.535156 18.617188 18.476562 18.617188 18.4375 18.613281 C 18.40625 18.609375 18.375 18.574219 18.371094 18.542969 C 18.363281 18.507812 18.378906 18.480469 18.421875 18.453125 L 18.546875 18.355469 L 18.796875 18.164062 L 19.054688 17.980469 L 19.183594 17.886719 L 19.191406 17.878906 L 19.195312 17.878906 L 19.199219 17.875 C 19.203125 17.875 19.207031 17.871094 19.207031 17.867188 C 19.238281 17.835938 19.226562 17.785156 19.191406 17.769531 C 19.179688 17.765625 19.171875 17.761719 19.160156 17.761719 C 19.15625 17.761719 19.152344 17.761719 19.148438 17.765625 L 19.144531 17.765625 L 19.136719 17.769531 L 19.039062 17.789062 L 18.730469 17.863281 C 18.679688 17.875 18.628906 17.886719 18.574219 17.90625 C 18.546875 17.914062 18.519531 17.925781 18.496094 17.9375 C 18.472656 17.949219 18.449219 17.960938 18.425781 17.96875 C 18.335938 18.007812 18.238281 18.023438 18.136719 18.023438 C 18.113281 18.019531 18.085938 18.019531 18.0625 18.015625 C 18.046875 18.015625 18.03125 18.007812 18.019531 18 C 17.996094 17.980469 17.984375 17.941406 17.992188 17.910156 C 17.992188 17.894531 18.003906 17.878906 18.015625 17.871094 C 18.019531 17.863281 18.027344 17.859375 18.035156 17.855469 L 18.070312 17.835938 L 18.207031 17.757812 L 18.347656 17.683594 C 18.394531 17.65625 18.433594 17.640625 18.480469 17.625 L 19.089844 17.449219 L 19.128906 17.4375 L 19.136719 17.4375 C 19.136719 17.4375 19.144531 17.433594 19.152344 17.429688 C 19.160156 17.425781 19.167969 17.421875 19.171875 17.410156 C 19.183594 17.398438 19.1875 17.378906 19.183594 17.359375 C 19.179688 17.34375 19.167969 17.328125 19.152344 17.316406 C 19.144531 17.3125 19.132812 17.308594 19.125 17.308594 L 19.03125 17.308594 L 18.875 17.300781 L 18.558594 17.292969 L 18.398438 17.289062 C 18.339844 17.285156 18.28125 17.292969 18.226562 17.304688 C 18.128906 17.324219 18.027344 17.335938 17.929688 17.328125 C 17.878906 17.324219 17.824219 17.320312 17.800781 17.304688 C 17.773438 17.289062 17.753906 17.257812 17.75 17.222656 C 17.75 17.1875 17.761719 17.152344 17.789062 17.132812 C 17.792969 17.128906 17.800781 17.125 17.808594 17.121094 C 17.820312 17.117188 17.832031 17.109375 17.84375 17.105469 L 17.917969 17.074219 L 18.207031 16.953125 C 18.253906 16.933594 18.296875 16.925781 18.351562 16.914062 L 18.507812 16.882812 L 19.125 16.746094 C 19.148438 16.742188 19.164062 16.722656 19.167969 16.699219 C 19.171875 16.671875 19.148438 16.644531 19.121094 16.640625 L 18.726562 16.597656 L 18.527344 16.574219 C 18.460938 16.566406 18.382812 16.570312 18.316406 16.582031 C 18.242188 16.597656 18.183594 16.621094 18.125 16.628906 C 18.0625 16.640625 18 16.640625 17.941406 16.636719 C 17.910156 16.632812 17.878906 16.628906 17.851562 16.621094 C 17.820312 16.613281 17.804688 16.605469 17.789062 16.589844 C 17.753906 16.5625 17.742188 16.511719 17.757812 16.46875 C 17.765625 16.445312 17.777344 16.425781 17.796875 16.414062 C 17.804688 16.40625 17.8125 16.402344 17.824219 16.398438 C 17.835938 16.390625 17.855469 16.386719 17.871094 16.378906 L 18.058594 16.316406 L 18.246094 16.25 L 18.335938 16.214844 C 18.363281 16.207031 18.394531 16.199219 18.421875 16.195312 C 18.679688 16.179688 18.949219 16.15625 19.210938 16.132812 C 19.21875 16.128906 19.226562 16.128906 19.230469 16.121094 C 19.246094 16.109375 19.25 16.085938 19.234375 16.070312 L 19.179688 16 C 19.160156 15.976562 19.136719 15.953125 19.113281 15.933594 C 19.066406 15.894531 19.007812 15.863281 18.949219 15.839844 C 18.917969 15.832031 18.886719 15.824219 18.855469 15.816406 C 18.839844 15.8125 18.824219 15.8125 18.8125 15.808594 C 18.796875 15.808594 18.785156 15.804688 18.773438 15.804688 C 18.726562 15.789062 18.679688 15.765625 18.640625 15.730469 C 18.617188 15.710938 18.609375 15.703125 18.601562 15.683594 C 18.597656 15.664062 18.59375 15.644531 18.597656 15.621094 C 18.601562 15.597656 18.609375 15.578125 18.621094 15.5625 C 18.632812 15.550781 18.640625 15.546875 18.660156 15.542969 L 19.007812 15.503906 C 19.066406 15.5 19.125 15.492188 19.175781 15.492188 C 19.234375 15.488281 19.285156 15.496094 19.34375 15.503906 C 19.460938 15.519531 19.574219 15.53125 19.691406 15.542969 C 19.808594 15.558594 19.921875 15.566406 20.039062 15.578125 C 20.070312 15.578125 20.097656 15.585938 20.132812 15.582031 C 20.164062 15.578125 20.195312 15.566406 20.21875 15.550781 C 20.265625 15.519531 20.308594 15.484375 20.351562 15.449219 C 20.355469 15.449219 20.359375 15.445312 20.363281 15.441406 C 20.308594 15.464844 20.253906 15.492188 20.203125 15.519531 C 20.179688 15.53125 20.152344 15.539062 20.128906 15.539062 C 20.101562 15.539062 20.074219 15.53125 20.046875 15.527344 C 19.957031 15.511719 19.867188 15.492188 19.78125 15.480469 C 19.753906 15.476562 19.726562 15.472656 19.703125 15.464844 C 19.691406 15.464844 19.679688 15.464844 19.671875 15.460938 C 19.566406 15.445312 19.464844 15.425781 19.359375 15.414062 C 19.300781 15.402344 19.238281 15.394531 19.175781 15.394531 C 19.117188 15.394531 19.054688 15.402344 19 15.40625 L 18.652344 15.441406 C 18.636719 15.441406 18.609375 15.449219 18.589844 15.460938 C 18.570312 15.472656 18.554688 15.484375 18.542969 15.5 C 18.519531 15.535156 18.503906 15.570312 18.5 15.605469 C 18.496094 15.644531 18.496094 15.679688 18.507812 15.71875 C 18.519531 15.753906 18.554688 15.792969 18.578125 15.808594 C 18.628906 15.847656 18.683594 15.882812 18.75 15.898438 C 18.765625 15.902344 18.78125 15.90625 18.800781 15.90625 C 18.8125 15.910156 18.824219 15.910156 18.839844 15.914062 C 18.867188 15.917969 18.890625 15.925781 18.917969 15.933594 C 18.96875 15.949219 19.015625 15.976562 19.058594 16.007812 C 19.074219 16.019531 19.089844 16.03125 19.105469 16.042969 C 19.109375 16.050781 19.117188 16.054688 19.121094 16.058594 L 19.121094 16.0625 C 19.113281 16.0625 19.097656 16.0625 19.089844 16.0625 C 18.863281 16.066406 18.640625 16.074219 18.410156 16.089844 C 18.375 16.09375 18.339844 16.097656 18.300781 16.109375 L 18.207031 16.140625 L 17.832031 16.273438 C 17.816406 16.28125 17.804688 16.285156 17.785156 16.292969 C 17.765625 16.300781 17.746094 16.308594 17.726562 16.324219 C 17.691406 16.351562 17.664062 16.390625 17.652344 16.429688 C 17.625 16.511719 17.644531 16.613281 17.710938 16.675781 C 17.742188 16.707031 17.789062 16.722656 17.824219 16.730469 C 17.859375 16.738281 17.894531 16.746094 17.929688 16.75 C 18 16.757812 18.070312 16.753906 18.140625 16.742188 C 18.210938 16.730469 18.28125 16.707031 18.335938 16.695312 C 18.386719 16.6875 18.433594 16.683594 18.484375 16.683594 C 18.496094 16.6875 18.503906 16.6875 18.519531 16.6875 L 18.613281 16.699219 L 18.714844 16.707031 L 18.757812 16.710938 L 18.484375 16.765625 L 18.382812 16.789062 L 18.328125 16.800781 C 18.277344 16.808594 18.21875 16.820312 18.167969 16.839844 L 17.871094 16.964844 L 17.800781 16.996094 C 17.785156 17 17.777344 17.003906 17.761719 17.011719 C 17.746094 17.019531 17.730469 17.027344 17.714844 17.039062 C 17.65625 17.082031 17.625 17.160156 17.632812 17.230469 C 17.636719 17.304688 17.679688 17.375 17.742188 17.410156 C 17.75 17.414062 17.757812 17.417969 17.769531 17.421875 C 17.777344 17.425781 17.785156 17.429688 17.792969 17.429688 L 17.816406 17.4375 L 17.839844 17.441406 C 17.855469 17.441406 17.875 17.445312 17.894531 17.445312 C 17.902344 17.449219 17.914062 17.449219 17.921875 17.449219 C 18.035156 17.457031 18.144531 17.445312 18.253906 17.425781 C 18.304688 17.414062 18.347656 17.40625 18.394531 17.410156 L 18.554688 17.414062 L 18.785156 17.417969 L 18.449219 17.519531 C 18.398438 17.53125 18.339844 17.558594 18.292969 17.585938 L 18.15625 17.660156 L 17.980469 17.757812 C 17.964844 17.765625 17.953125 17.777344 17.9375 17.789062 C 17.910156 17.816406 17.890625 17.847656 17.882812 17.886719 C 17.867188 17.957031 17.894531 18.035156 17.953125 18.082031 C 17.980469 18.105469 18.015625 18.121094 18.050781 18.125 C 18.082031 18.128906 18.109375 18.128906 18.136719 18.128906 Z M 21.128906 27.75 C 20.53125 27.796875 19.90625 27.808594 19.296875 27.789062 C 19.296875 27.789062 19.292969 27.789062 19.292969 27.789062 C 18.855469 27.773438 18.425781 27.742188 18.023438 27.695312 C 18.023438 27.703125 18.019531 27.714844 18.019531 27.722656 C 18.019531 27.738281 18.019531 27.753906 18.019531 27.765625 L 18.019531 27.890625 C 18.019531 27.9375 18.03125 27.980469 18.050781 28.023438 C 18.09375 28.105469 18.175781 28.167969 18.273438 28.179688 C 18.839844 28.246094 19.398438 28.277344 19.945312 28.277344 C 20.507812 28.277344 21.058594 28.242188 21.59375 28.175781 C 21.707031 28.160156 21.800781 28.078125 21.832031 27.96875 C 21.839844 27.9375 21.851562 27.90625 21.855469 27.878906 C 21.863281 27.851562 21.871094 27.824219 21.875 27.796875 C 21.882812 27.769531 21.886719 27.738281 21.890625 27.710938 C 21.894531 27.699219 21.894531 27.683594 21.898438 27.671875 C 21.648438 27.703125 21.390625 27.730469 21.128906 27.75 Z M 19.460938 27.007812 C 19.511719 27.027344 19.570312 27.042969 19.628906 27.054688 C 19.597656 27 19.550781 26.957031 19.503906 26.921875 C 19.457031 26.886719 19.402344 26.855469 19.347656 26.832031 C 19.292969 26.808594 19.238281 26.789062 19.179688 26.78125 C 19.121094 26.769531 19.058594 26.765625 18.996094 26.777344 C 19.046875 26.816406 19.097656 26.84375 19.148438 26.871094 C 19.199219 26.898438 19.25 26.921875 19.300781 26.945312 C 19.351562 26.964844 19.40625 26.988281 19.460938 27.007812 Z M 26.066406 26.738281 C 26.140625 26.746094 26.207031 26.746094 26.277344 26.746094 L 26.476562 26.746094 C 26.542969 26.746094 26.605469 26.75 26.675781 26.753906 C 26.742188 26.753906 26.808594 26.761719 26.882812 26.761719 C 26.769531 26.664062 26.621094 26.625 26.476562 26.625 C 26.40625 26.625 26.332031 26.632812 26.265625 26.652344 C 26.195312 26.671875 26.128906 26.695312 26.066406 26.738281 Z M 16.390625 16.1875 C 16.359375 16.25 16.34375 16.316406 16.324219 16.378906 C 16.308594 16.441406 16.285156 16.503906 16.273438 16.570312 C 16.269531 16.585938 16.269531 16.601562 16.269531 16.617188 C 16.261719 16.667969 16.257812 16.722656 16.261719 16.777344 C 16.265625 16.839844 16.265625 16.902344 16.257812 16.964844 C 16.246094 17.085938 16.207031 17.207031 16.144531 17.3125 C 16.128906 17.339844 16.113281 17.367188 16.09375 17.390625 C 16.082031 17.410156 16.0625 17.425781 16.042969 17.433594 C 16 17.453125 15.949219 17.445312 15.917969 17.417969 C 15.898438 17.402344 15.886719 17.386719 15.878906 17.363281 C 15.875 17.34375 15.867188 17.304688 15.859375 17.277344 L 15.78125 16.894531 C 15.769531 16.835938 15.769531 16.78125 15.777344 16.714844 L 15.789062 16.519531 L 15.792969 16.46875 L 15.792969 16.445312 C 15.792969 16.445312 15.796875 16.433594 15.792969 16.425781 C 15.792969 16.417969 15.789062 16.40625 15.785156 16.398438 C 15.773438 16.382812 15.757812 16.371094 15.742188 16.363281 C 15.726562 16.359375 15.707031 16.359375 15.6875 16.367188 C 15.667969 16.375 15.652344 16.394531 15.652344 16.402344 L 15.640625 16.421875 L 15.617188 16.464844 C 15.550781 16.582031 15.507812 16.703125 15.441406 16.816406 C 15.410156 16.875 15.378906 16.929688 15.347656 16.992188 C 15.316406 17.050781 15.292969 17.117188 15.277344 17.183594 C 15.261719 17.253906 15.253906 17.3125 15.234375 17.371094 C 15.214844 17.429688 15.195312 17.488281 15.167969 17.542969 C 15.136719 17.597656 15.105469 17.648438 15.066406 17.699219 C 15.054688 17.710938 15.046875 17.722656 15.035156 17.734375 C 15.027344 17.746094 15.015625 17.757812 15.007812 17.761719 C 14.996094 17.773438 14.980469 17.777344 14.960938 17.769531 C 14.945312 17.765625 14.929688 17.753906 14.921875 17.738281 C 14.917969 17.726562 14.921875 17.6875 14.917969 17.65625 L 14.917969 17.460938 C 14.914062 17.328125 14.921875 17.207031 14.953125 17.082031 L 15.191406 16.339844 C 15.195312 16.324219 15.1875 16.308594 15.171875 16.304688 C 15.15625 16.296875 15.140625 16.304688 15.136719 16.320312 C 15.046875 16.570312 14.957031 16.808594 14.875 17.0625 C 14.839844 17.191406 14.824219 17.328125 14.828125 17.460938 L 14.828125 17.703125 C 14.824219 17.71875 14.828125 17.75 14.835938 17.769531 C 14.851562 17.8125 14.890625 17.851562 14.933594 17.863281 C 14.960938 17.875 14.996094 17.871094 15.027344 17.863281 C 15.039062 17.855469 15.054688 17.851562 15.070312 17.839844 C 15.089844 17.824219 15.097656 17.8125 15.109375 17.800781 C 15.121094 17.785156 15.132812 17.773438 15.144531 17.761719 C 15.1875 17.707031 15.222656 17.652344 15.257812 17.589844 C 15.269531 17.566406 15.28125 17.542969 15.289062 17.519531 C 15.308594 17.480469 15.324219 17.441406 15.335938 17.402344 C 15.355469 17.335938 15.363281 17.265625 15.375 17.207031 C 15.386719 17.144531 15.402344 17.085938 15.425781 17.027344 C 15.453125 16.972656 15.488281 16.914062 15.515625 16.859375 C 15.5625 16.777344 15.613281 16.699219 15.664062 16.621094 L 15.660156 16.707031 C 15.65625 16.769531 15.648438 16.847656 15.664062 16.917969 L 15.703125 17.089844 L 15.707031 17.109375 L 15.75 17.296875 C 15.757812 17.332031 15.761719 17.355469 15.773438 17.402344 C 15.789062 17.441406 15.8125 17.476562 15.847656 17.503906 C 15.914062 17.558594 16.007812 17.570312 16.085938 17.53125 C 16.125 17.515625 16.15625 17.484375 16.179688 17.453125 C 16.199219 17.421875 16.21875 17.394531 16.234375 17.363281 C 16.296875 17.242188 16.339844 17.109375 16.351562 16.972656 C 16.359375 16.90625 16.359375 16.835938 16.351562 16.769531 C 16.34375 16.707031 16.347656 16.644531 16.355469 16.585938 C 16.363281 16.527344 16.382812 16.460938 16.398438 16.398438 C 16.402344 16.382812 16.40625 16.367188 16.410156 16.347656 C 16.425781 16.304688 16.4375 16.261719 16.457031 16.21875 C 16.496094 16.105469 16.613281 16.042969 16.738281 16.007812 C 16.671875 16.007812 16.609375 16.019531 16.542969 16.046875 C 16.480469 16.070312 16.425781 16.125 16.390625 16.1875 Z M 16.390625 16.1875 " fill-opacity="1" fill-rule="nonzero"/></g></svg>