<?xml version="1.0" encoding="iso-8859-1"?>
<!-- Uploaded to: SVG Repo, www.svgrepo.com, Generator: SVG Repo Mixer Tools -->
<svg height="800px" width="800px" version="1.1" id="Layer_1" xmlns="http://www.w3.org/2000/svg" xmlns:xlink="http://www.w3.org/1999/xlink" 
	 viewBox="0 0 512.077 512.077" xml:space="preserve">
<g transform="translate(1 1)">
	<path style="fill:#FFDD09;" d="M430.825,110.01H79.252c-25.6,0-46.08,23.04-46.08,51.2v85.333c0,28.16,20.48,51.2,46.08,51.2
		h137.387v-25.6c0-9.387,6.827-17.067,15.36-17.067h46.08c8.533,0,15.36,7.68,15.36,17.067v25.6h137.387
		c25.6,0,46.08-23.04,46.08-51.2V161.21C476.905,133.05,456.425,110.01,430.825,110.01"/>
	<path style="fill:#FFFFFF;" d="M33.172,246.544V161.21c0-28.16,20.48-51.2,46.08-51.2h-20.48c-28.16,0-51.2,23.04-51.2,51.2v85.333
		c0,28.16,23.04,51.2,51.2,51.2h20.48C53.652,297.744,33.172,274.704,33.172,246.544"/>
	<path style="fill:#FD9808;" d="M451.305,110.01h-20.48c25.6,0,46.08,23.04,46.08,51.2v85.333c0,28.16-20.48,51.2-46.08,51.2h20.48
		c28.16,0,51.2-23.04,51.2-51.2V161.21C502.505,133.05,479.465,110.01,451.305,110.01"/>
	<path style="fill:#FFDD09;" d="M459.839,451.344v-166.4c-7.68,8.533-18.773,12.8-30.72,12.8H292.585v25.6
		c0,9.387-6.827,17.067-15.36,17.067h-45.227c-8.533,0-15.36-7.68-15.36-17.067v-25.6H80.105c-11.947,0-22.187-5.12-30.72-12.8
		v166.4H459.839z"/>
	<path style="fill:#FFFFFF;" d="M24.638,284.944v166.4h25.6V296.89C40.852,295.184,31.465,290.917,24.638,284.944"/>
	<path style="fill:#FD9808;" d="M459.839,296.89v154.453h25.6v-166.4C478.612,290.917,469.225,295.184,459.839,296.89"/>
	<path style="fill:#FCC309;" d="M95.465,502.544h318.293c24.747,0,45.227-23.04,45.227-51.2H50.238
		C50.238,479.504,70.718,502.544,95.465,502.544"/>
	<path style="fill:#FFFFFF;" d="M50.238,451.344h-25.6c0,28.16,23.04,51.2,51.2,51.2h19.627
		C70.718,502.544,50.238,479.504,50.238,451.344"/>
	<path style="fill:#FD9808;" d="M459.839,451.344c0,28.16-20.48,51.2-45.227,51.2h19.627c28.16,0,51.2-23.04,51.2-51.2H459.839z"/>
	<path style="fill:#FD7308;" d="M280.638,340.41h-51.2c-9.387,0-17.067-7.68-17.067-17.067v-51.2c0-9.387,7.68-17.067,17.067-17.067
		h51.2c9.387,0,17.067,7.68,17.067,17.067v51.2C297.705,332.73,290.025,340.41,280.638,340.41"/>
	<path style="fill:#FD9808;" d="M255.038,340.41h-25.6c-9.387,0-17.067-7.68-17.067-17.067v-51.2c0-9.387,7.68-17.067,17.067-17.067
		h25.6c9.387,0,17.067,7.68,17.067,17.067v51.2C272.105,332.73,264.425,340.41,255.038,340.41"/>
	<path style="fill:#FCC309;" d="M306.238,75.877L306.238,75.877c-33.28-11.093-69.12-11.093-102.4,0V7.61
		c33.28,11.093,69.12,11.093,102.4,0V75.877z"/>
	<g>
		<path style="fill:#FFDD09;" d="M152.638,110.01h-34.133c0-46.933,38.4-85.333,85.333-85.333V58.81
			C175.678,58.81,152.638,81.85,152.638,110.01"/>
		<path style="fill:#FFDD09;" d="M306.238,58.81V24.677c46.933,0,85.333,38.4,85.333,85.333h-34.133
			C357.438,81.85,334.398,58.81,306.238,58.81"/>
	</g>
	<path d="M203.838,84.41c-1.707,0-3.413-0.853-5.12-1.707c-1.707-1.707-3.413-4.267-3.413-6.827V7.61c0-2.56,1.707-5.12,3.413-6.827
		c1.707-1.707,5.12-1.707,7.68-0.853c31.573,10.24,65.707,10.24,97.28,0c2.56-1.707,5.12-0.853,7.68,0.853
		c1.707,1.707,3.413,4.267,3.413,6.827v68.267c0,2.56-1.707,5.12-3.413,6.827c-2.56,1.707-5.12,1.707-7.68,0.853
		c-31.573-10.24-65.707-10.24-97.28,0C205.545,84.41,204.692,84.41,203.838,84.41z M212.372,18.704V63.93
		c28.16-6.827,57.173-6.827,85.333,0V18.704C269.545,26.384,240.532,26.384,212.372,18.704z"/>
	<path d="M152.638,118.544h-34.133c-5.12,0-8.533-3.413-8.533-8.533c0-52.053,41.813-93.867,93.867-93.867
		c5.12,0,8.533,3.413,8.533,8.533V58.81c0,5.12-3.413,8.533-8.533,8.533c-23.893,0-42.667,18.773-42.667,42.667
		C161.172,115.13,157.758,118.544,152.638,118.544z M127.892,101.477h17.067c3.413-26.453,24.747-46.933,50.347-50.347V34.064
		C159.465,37.477,131.305,65.637,127.892,101.477z"/>
	<path d="M391.572,118.544h-34.133c-5.12,0-8.533-3.413-8.533-8.533c0-23.893-18.773-42.667-42.667-42.667
		c-5.12,0-8.533-3.413-8.533-8.533V24.677c0-5.12,3.413-8.533,8.533-8.533c52.053,0,93.867,41.813,93.867,93.867
		C400.105,115.13,396.692,118.544,391.572,118.544z M365.118,101.477h17.067c-4.267-35.84-32.427-64-67.413-67.413V51.13
		C341.225,54.544,361.705,75.024,365.118,101.477z"/>
	<path d="M280.638,348.944h-51.2c-14.507,0-25.6-11.093-25.6-25.6v-51.2c0-14.507,11.093-25.6,25.6-25.6h51.2
		c14.507,0,25.6,11.093,25.6,25.6v51.2C306.238,337.85,295.145,348.944,280.638,348.944z M229.438,263.61
		c-5.12,0-8.533,3.413-8.533,8.533v51.2c0,5.12,3.413,8.533,8.533,8.533h51.2c5.12,0,8.533-3.413,8.533-8.533v-51.2
		c0-5.12-3.413-8.533-8.533-8.533H229.438z"/>
	<path d="M434.238,511.077h-358.4c-33.28,0-59.733-26.453-59.733-59.733c0-5.12,3.413-8.533,8.533-8.533h460.8
		c5.12,0,8.533,3.413,8.533,8.533C493.972,484.624,467.519,511.077,434.238,511.077z M34.025,459.877
		c4.267,19.627,21.333,34.133,41.813,34.133h358.4c20.48,0,37.547-14.507,41.813-34.133H34.025z"/>
	<path d="M451.305,306.277h-153.6c-5.12,0-8.533-3.413-8.533-8.533v-25.6c0-5.12-3.413-8.533-8.533-8.533h-51.2
		c-5.12,0-8.533,3.413-8.533,8.533v25.6c0,5.12-3.413,8.533-8.533,8.533h-153.6c-33.28,0-59.733-26.453-59.733-59.733V161.21
		c0-33.28,26.453-59.733,59.733-59.733h392.533c33.28,0,59.733,26.453,59.733,59.733v85.333
		C511.039,279.824,484.585,306.277,451.305,306.277z M306.238,289.21h145.067c23.893,0,42.667-18.773,42.667-42.667V161.21
		c0-23.893-18.773-42.667-42.667-42.667H58.772c-23.893,0-42.667,18.773-42.667,42.667v85.333c0,23.893,18.773,42.667,42.667,42.667
		h145.067v-17.067c0-14.507,11.093-25.6,25.6-25.6h51.2c14.507,0,25.6,11.093,25.6,25.6V289.21z"/>
	<path d="M485.439,459.877h-460.8c-5.12,0-8.533-3.413-8.533-8.533v-166.4c0-3.413,1.707-6.827,5.12-7.68
		c3.413-1.707,6.827-0.853,9.387,1.707c7.68,5.973,17.92,10.24,28.16,10.24h153.6c5.12,0,8.533,3.413,8.533,8.533v25.6
		c0,5.12,3.413,8.533,8.533,8.533h51.2c5.12,0,8.533-3.413,8.533-8.533v-25.6c0-5.12,3.413-8.533,8.533-8.533h153.6
		c10.24,0,20.48-4.267,28.16-11.093c2.56-2.56,5.973-2.56,9.387-1.707c3.413,1.707,5.12,4.267,5.12,7.68v167.253
		C493.972,456.464,490.558,459.877,485.439,459.877z M33.172,442.81h443.733V300.304c-7.68,3.413-17.067,5.973-25.6,5.973H306.238
		v17.067c0,14.507-11.093,25.6-25.6,25.6h-51.2c-14.507,0-25.6-11.093-25.6-25.6v-17.067H58.772c-8.533,0-17.92-1.707-25.6-5.973
		V442.81z"/>
</g>
</svg>